<svg width="24" height="25" viewBox="0 0 24 25" fill="none" xmlns="http://www.w3.org/2000/svg">
<path d="M23.938 5.55295C23.8298 5.00798 23.5882 4.50928 23.2508 4.0973C23.1796 4.00753 23.1053 3.92714 23.0247 3.84675C22.4268 3.24591 21.5876 2.87109 20.6709 2.87109H3.32911C2.41238 2.87109 1.57622 3.24591 0.975516 3.84675C0.895125 3.92714 0.820781 4.00753 0.749438 4.0973C0.411797 4.50923 0.170156 5.00798 0.0649688 5.55295C0.02175 5.76328 0 5.98064 0 6.20039V18.3801C0 18.8473 0.0990938 19.2965 0.275813 19.7021C0.439734 20.0893 0.681422 20.4396 0.975469 20.7334C1.05 20.8077 1.12402 20.8761 1.20478 20.944C1.78069 21.421 2.52408 21.709 3.32911 21.709H20.6709C21.4762 21.709 22.2228 21.421 22.7954 20.941C22.8759 20.8761 22.9503 20.8077 23.0247 20.7334C23.3186 20.4396 23.5602 20.0893 23.7275 19.7021V19.6991C23.9042 19.2935 24 18.8473 24 18.3801V6.20039C24 5.98064 23.9786 5.76328 23.938 5.55295ZM2.18011 5.0512C2.47753 4.75411 2.87695 4.57425 3.32911 4.57425H20.6709C21.123 4.57425 21.526 4.75411 21.8199 5.0512C21.8725 5.10413 21.922 5.16309 21.9658 5.22169L12.8764 13.1433C12.6257 13.363 12.316 13.4715 12 13.4715C11.6872 13.4715 11.3777 13.363 11.1237 13.1433L2.03775 5.21831C2.07797 5.15972 2.12752 5.10413 2.18011 5.0512ZM1.70316 18.3801V6.98077L8.28084 12.719L1.70648 18.4511C1.70316 18.4293 1.70316 18.4049 1.70316 18.3801ZM20.6709 20.0055H3.32911C3.03469 20.0055 2.7592 19.9282 2.52408 19.7922L9.46055 13.7472L10.1081 14.3106C10.65 14.7815 11.3282 15.02 12 15.02C12.6753 15.02 13.3534 14.7815 13.8953 14.3106L14.5425 13.7472L21.4763 19.7922C21.2408 19.9282 20.9653 20.0055 20.6709 20.0055ZM22.2968 18.3801C22.2968 18.4049 22.2968 18.4293 22.2937 18.4511L15.7193 12.7223L22.2968 6.98381V18.3801Z" fill="#FBFBFB"/>
</svg>
