<svg width="24" height="25" viewBox="0 0 24 25" fill="none" xmlns="http://www.w3.org/2000/svg">
<path d="M6.69771 22.0707H2.71714V9.25209H6.69771V22.0707ZM4.70528 7.50352C3.43242 7.50352 2.39999 6.44924 2.39999 5.17638C2.39999 4.56498 2.64287 3.97862 3.0752 3.5463C3.50752 3.11397 4.09388 2.87109 4.70528 2.87109C5.31668 2.87109 5.90304 3.11397 6.33536 3.5463C6.76769 3.97862 7.01057 4.56498 7.01057 5.17638C7.01057 6.44924 5.97771 7.50352 4.70528 7.50352ZM21.5957 22.0707H17.6237V15.8307C17.6237 14.3435 17.5937 12.4364 15.5541 12.4364C13.4846 12.4364 13.1674 14.0521 13.1674 15.7235V22.0707H9.19114V9.25209H13.0089V11.0007H13.0646C13.596 9.99352 14.8941 8.93067 16.8309 8.93067C20.8594 8.93067 21.6 11.5835 21.6 15.0292V22.0707H21.5957Z" fill="#FBFBFB"/>
</svg>
