<svg width="22" height="23" viewBox="0 0 22 23" fill="none" xmlns="http://www.w3.org/2000/svg">
<g clip-path="url(#clip0_431_2099)">
<path d="M16.1828 13.0828C16.1408 13.0626 14.5661 12.2872 14.2863 12.1865C14.172 12.1454 14.0496 12.1054 13.9195 12.1054C13.7068 12.1054 13.5282 12.2114 13.3891 12.4195C13.2318 12.6533 12.7556 13.2099 12.6085 13.3762C12.5893 13.3982 12.563 13.4244 12.5473 13.4244C12.5332 13.4244 12.2895 13.324 12.2157 13.292C10.5265 12.5582 9.24434 10.7937 9.06852 10.4961C9.04341 10.4533 9.04236 10.4339 9.04215 10.4339C9.04832 10.4113 9.10513 10.3543 9.13444 10.3249C9.22021 10.2401 9.31313 10.1282 9.40304 10.02C9.44561 9.96874 9.48825 9.9174 9.53012 9.86902C9.66056 9.71725 9.71862 9.59944 9.78595 9.46296L9.82122 9.39206C9.98561 9.06547 9.84521 8.78986 9.79983 8.70086C9.7626 8.62638 9.09769 7.02167 9.027 6.85308C8.85701 6.44626 8.63238 6.25684 8.32023 6.25684C8.29127 6.25684 8.32023 6.25684 8.19877 6.26196C8.05087 6.2682 7.24542 6.37423 6.8893 6.59872C6.51166 6.83681 5.87277 7.59576 5.87277 8.93047C5.87277 10.1317 6.63508 11.2659 6.96238 11.6973C6.97052 11.7082 6.98545 11.7303 7.00712 11.762C8.26055 13.5925 9.82312 14.9491 11.4071 15.5819C12.9321 16.191 13.6542 16.2614 14.0648 16.2614H14.0649C14.2374 16.2614 14.3755 16.2479 14.4973 16.2359L14.5746 16.2285C15.1014 16.1818 16.2591 15.5819 16.5224 14.8501C16.7299 14.2737 16.7846 13.644 16.6465 13.4154C16.552 13.26 16.3891 13.1818 16.1828 13.0828Z" fill="#FBFBFB"/>
<path d="M11.1917 0.670898C5.34178 0.670898 0.582484 5.39443 0.582484 11.2004C0.582484 13.0783 1.08503 14.9164 2.03705 16.5252L0.214863 21.9003C0.180921 22.0005 0.206167 22.1114 0.280295 22.1868C0.333804 22.2414 0.406388 22.2709 0.480515 22.2709C0.508918 22.2709 0.537531 22.2666 0.565443 22.2577L6.17022 20.4767C7.70396 21.2962 9.43743 21.7287 11.1918 21.7287C17.0412 21.7288 21.8 17.0058 21.8 11.2004C21.8 5.39443 17.0412 0.670898 11.1917 0.670898ZM11.1917 19.5354C9.54095 19.5354 7.94205 19.0587 6.56765 18.1569C6.52143 18.1265 6.46778 18.1109 6.41378 18.1109C6.38524 18.1109 6.35663 18.1153 6.32879 18.1241L3.52114 19.0166L4.4275 16.3426C4.45681 16.2561 4.44215 16.1606 4.38815 16.0868C3.34153 14.6568 2.78828 12.9671 2.78828 11.2004C2.78828 6.60389 6.55804 2.86428 11.1917 2.86428C15.8247 2.86428 19.5941 6.60389 19.5941 11.2004C19.5941 15.7964 15.8249 19.5354 11.1917 19.5354Z" fill="#FBFBFB"/>
</g>
<defs>
<clipPath id="clip0_431_2099">
<rect width="21.6" height="21.6" fill="white" transform="translate(0.200012 0.670898)"/>
</clipPath>
</defs>
</svg>
